<svg width="48" height="48" viewBox="0 0 48 48" fill="none" xmlns="http://www.w3.org/2000/svg">
<path d="M0 4.5C0 4.10218 0.158035 3.72064 0.43934 3.43934C0.720644 3.15804 1.10218 3 1.5 3H6C6.33459 3.00009 6.65955 3.11205 6.92319 3.31807C7.18684 3.5241 7.37403 3.81235 7.455 4.137L8.67 9H43.5C43.7218 9.00013 43.9409 9.04947 44.1414 9.14445C44.3418 9.23944 44.5187 9.37771 44.6593 9.5493C44.7999 9.72089 44.9007 9.92153 44.9544 10.1368C45.0082 10.352 45.0135 10.5765 44.97 10.794L41.97 25.794C41.9044 26.1211 41.7316 26.417 41.4789 26.6349C41.2263 26.8527 40.9082 26.9802 40.575 26.997L12.384 28.413L13.245 33H39C39.3978 33 39.7794 33.158 40.0607 33.4393C40.342 33.7206 40.5 34.1022 40.5 34.5C40.5 34.8978 40.342 35.2794 40.0607 35.5607C39.7794 35.842 39.3978 36 39 36H12C11.6503 35.9997 11.3117 35.8772 11.0427 35.6537C10.7738 35.4302 10.5913 35.1197 10.527 34.776L6.03 10.821L4.83 6H1.5C1.10218 6 0.720644 5.84196 0.43934 5.56066C0.158035 5.27936 0 4.89782 0 4.5ZM9.306 12L11.826 25.437L39.258 24.06L41.67 12H9.306ZM15 36C13.4087 36 11.8826 36.6321 10.7574 37.7574C9.63214 38.8826 9 40.4087 9 42C9 43.5913 9.63214 45.1174 10.7574 46.2426C11.8826 47.3679 13.4087 48 15 48C16.5913 48 18.1174 47.3679 19.2426 46.2426C20.3679 45.1174 21 43.5913 21 42C21 40.4087 20.3679 38.8826 19.2426 37.7574C18.1174 36.6321 16.5913 36 15 36ZM36 36C34.4087 36 32.8826 36.6321 31.7574 37.7574C30.6321 38.8826 30 40.4087 30 42C30 43.5913 30.6321 45.1174 31.7574 46.2426C32.8826 47.3679 34.4087 48 36 48C37.5913 48 39.1174 47.3679 40.2426 46.2426C41.3679 45.1174 42 43.5913 42 42C42 40.4087 41.3679 38.8826 40.2426 37.7574C39.1174 36.6321 37.5913 36 36 36ZM15 39C15.7956 39 16.5587 39.3161 17.1213 39.8787C17.6839 40.4413 18 41.2043 18 42C18 42.7957 17.6839 43.5587 17.1213 44.1213C16.5587 44.6839 15.7956 45 15 45C14.2044 45 13.4413 44.6839 12.8787 44.1213C12.3161 43.5587 12 42.7957 12 42C12 41.2043 12.3161 40.4413 12.8787 39.8787C13.4413 39.3161 14.2044 39 15 39ZM36 39C36.7957 39 37.5587 39.3161 38.1213 39.8787C38.6839 40.4413 39 41.2043 39 42C39 42.7957 38.6839 43.5587 38.1213 44.1213C37.5587 44.6839 36.7957 45 36 45C35.2043 45 34.4413 44.6839 33.8787 44.1213C33.3161 43.5587 33 42.7957 33 42C33 41.2043 33.3161 40.4413 33.8787 39.8787C34.4413 39.3161 35.2043 39 36 39Z" fill="#ED5C2E"/>
</svg>
