<svg width="32" height="33" viewBox="0 0 32 33" fill="none" xmlns="http://www.w3.org/2000/svg">
<path d="M16 0.330078C17.0842 0.330078 17.96 1.23333 17.96 2.35133V3.36195H18.94C20.0242 3.36195 20.9 4.2652 20.9 5.3832C20.9 6.5012 20.0242 7.40445 18.94 7.40445H17.96V10.4363H27.27C28.6237 10.4363 29.72 11.567 29.72 12.9629C29.72 13.2977 29.6588 13.6261 29.5301 13.9356L24.82 25.5957H7.18003L2.4699 13.9356C2.34128 13.6261 2.28003 13.2977 2.28003 12.9629C2.28003 11.567 3.3764 10.4363 4.73003 10.4363H14.04V7.40445H13.06C11.9759 7.40445 11.1 6.50121 11.1 5.3832C11.1 4.2652 11.9759 3.36195 13.06 3.36195H14.04V2.35133C14.04 1.23333 14.9159 0.330078 16 0.330078ZM4.64428 30.2319L7.18003 27.617H24.82L27.3558 30.2319C27.613 30.4972 27.76 30.8636 27.76 31.2426C27.76 32.0321 27.1414 32.6701 26.3758 32.6701H5.62428C4.85865 32.6701 4.24003 32.0321 4.24003 31.2426C4.24003 30.8636 4.38703 30.4972 4.64428 30.2319Z" fill="#ED5C2E"/>
</svg>
