<svg width="16" height="16" viewBox="0 0 16 16" fill="none" xmlns="http://www.w3.org/2000/svg">
<path d="M8.00001 6.87995C8.61854 6.87995 9.11994 6.37855 9.11994 5.76001C9.11994 5.14148 8.61854 4.64001 8.00001 4.64001C7.38147 4.64001 6.88 5.14148 6.88 5.76001C6.88 6.37855 7.38147 6.87995 8.00001 6.87995Z" fill="white" fill-opacity="0.7"/>
<path d="M7.99998 0.160034C4.91215 0.160034 2.39978 2.56287 2.39978 5.51527C2.39978 6.92123 3.04065 8.79103 4.30451 11.0728C5.31955 12.9047 6.49388 14.5613 7.10465 15.3856C7.20788 15.5265 7.34281 15.641 7.49851 15.72C7.65428 15.7989 7.82641 15.84 8.00101 15.84C8.17565 15.84 8.34778 15.7989 8.50355 15.72C8.65928 15.641 8.79421 15.5265 8.89741 15.3856C9.50711 14.5613 10.6825 12.9047 11.6975 11.0728C12.9593 8.79173 13.6002 6.92193 13.6002 5.51527C13.6002 2.56287 11.0878 0.160034 7.99998 0.160034ZM7.99998 8.00033C7.55695 8.00033 7.12381 7.86897 6.75548 7.6228C6.38708 7.3767 6.09998 7.02683 5.93041 6.6175C5.76088 6.20817 5.71651 5.75777 5.80295 5.32323C5.88938 4.8887 6.10275 4.48953 6.41598 4.17627C6.72931 3.863 7.12841 3.64967 7.56298 3.56323C7.99751 3.47677 8.44788 3.52113 8.85725 3.6907C9.26655 3.86023 9.61641 4.14737 9.86255 4.51577C10.1087 4.8841 10.24 5.3172 10.24 5.76027C10.2394 6.35413 10.0032 6.92353 9.58325 7.3435C9.16331 7.76347 8.59391 7.99967 7.99998 8.00033Z" fill="white" fill-opacity="0.7"/>
</svg>
