<svg width="49" height="48" viewBox="0 0 49 48" fill="none" xmlns="http://www.w3.org/2000/svg">
<path d="M29.4163 35.0568L9.39126 29.595" stroke="#ED5C2E" stroke-width="3" stroke-linecap="round" stroke-linejoin="round"/>
<path d="M36.455 6.41648C37.2014 5.67007 38.2138 5.25073 39.2694 5.25073C40.325 5.25073 41.3373 5.67007 42.0837 6.41648C42.8302 7.1629 43.2495 8.17526 43.2495 9.23086C43.2495 10.2865 42.8302 11.2988 42.0837 12.0452L34.55 19.5809C34.3742 19.7567 34.2755 19.9951 34.2755 20.2437C34.2755 20.4923 34.3742 20.7307 34.55 20.9065L36.32 22.6765C37.1673 23.5239 37.6433 24.6732 37.6433 25.8715C37.6433 27.0698 37.1673 28.2191 36.32 29.0665L34.55 30.8365C34.3742 31.0122 34.1358 31.111 33.8872 31.111C33.6386 31.111 33.4002 31.0122 33.2244 30.8365L17.6637 15.2777C17.488 15.1019 17.3893 14.8635 17.3893 14.6149C17.3893 14.3663 17.488 14.1279 17.6637 13.9521L19.4337 12.1821C20.2812 11.3348 21.4304 10.8588 22.6287 10.8588C23.8271 10.8588 24.9763 11.3348 25.8237 12.1821L27.5937 13.9521C27.7696 14.1279 28.008 14.2266 28.2566 14.2266C28.5052 14.2266 28.7436 14.1279 28.9194 13.9521L36.455 6.41648Z" stroke="#ED5C2E" stroke-width="3" stroke-linecap="round" stroke-linejoin="round"/>
<path d="M18.875 16.5C15.4925 21.5813 11.4312 22.9875 6.53186 23.9025C6.36933 23.9322 6.21734 24.0037 6.09088 24.11C5.96441 24.2163 5.86783 24.3538 5.81067 24.5088C5.75351 24.6638 5.73774 24.831 5.76491 24.994C5.79208 25.157 5.86126 25.31 5.96561 25.4381L19.6906 42.0938C19.9694 42.3898 20.3369 42.5873 20.7376 42.6562C21.1384 42.7252 21.5508 42.6621 21.9125 42.4762C25.8781 39.7594 32 32.985 32 29.625" stroke="#ED5C2E" stroke-width="3" stroke-linecap="round" stroke-linejoin="round"/>
</svg>
