<svg width="16" height="16" viewBox="0 0 16 16" fill="none" xmlns="http://www.w3.org/2000/svg">
<g clip-path="url(#clip0_4_145)">
<path d="M15.4943 4.852C15.3083 10.7643 10.4573 15.5 4.5 15.5C2.22233 15.5 0.5 13.7217 0.5 11.477C0.500017 11.1772 0.589863 10.8843 0.757948 10.6361C0.926033 10.3878 1.16465 10.1957 1.443 10.0843L3.498 9.26233C3.83113 9.12904 4.19604 9.09643 4.54752 9.16854C4.899 9.24065 5.2216 9.41431 5.47533 9.668L6.50067 10.6937C6.546 10.739 6.597 10.7443 6.628 10.735C7.59653 10.4392 8.47756 9.91004 9.19363 9.19397C9.90971 8.47789 10.4389 7.59686 10.7347 6.62833C10.7443 6.597 10.739 6.546 10.6937 6.50067L9.668 5.47533C9.41431 5.2216 9.24065 4.899 9.16854 4.54752C9.09643 4.19604 9.12904 3.83113 9.26233 3.498L10.0843 1.443C10.1957 1.16465 10.3878 0.926034 10.6361 0.757948C10.8843 0.589863 11.1772 0.500017 11.477 0.5C13.932 0.5 15.5323 2.45367 15.4943 4.852Z" fill="white" fill-opacity="0.7"/>
</g>
<defs>
<clipPath id="clip0_4_145">
<rect width="16" height="16" fill="white"/>
</clipPath>
</defs>
</svg>
