<svg width="48" height="48" viewBox="0 0 48 48" fill="none" xmlns="http://www.w3.org/2000/svg">
<path d="M24.0004 31.5C13.2004 31.5 11.2872 20.7366 10.9483 12.1996C10.854 9.82496 10.8068 8.63762 11.6988 7.53906C12.5908 6.44051 13.6583 6.26038 15.7935 5.90014C17.9011 5.54454 20.6561 5.25 24.0004 5.25C27.3444 5.25 30.0996 5.54454 32.2071 5.90014C34.3423 6.26038 35.4097 6.44051 36.3017 7.53906C37.1938 8.63762 37.1466 9.82496 37.0522 12.1996C36.7134 20.7366 34.8002 31.5 24.0004 31.5Z" stroke="#ED5C2E" stroke-width="3"/>
<path d="M37.125 10.875L38.9036 11.4679C40.7601 12.0867 41.6882 12.3961 42.219 13.1326C42.75 13.8692 42.75 14.8476 42.7498 16.8044V16.9404C42.7498 18.5543 42.7498 19.3612 42.3613 20.0214C41.9728 20.6816 41.2674 21.0735 39.8567 21.8572L34.3125 24.9375" stroke="#ED5C2E" stroke-width="3"/>
<path d="M10.8749 10.875L9.09623 11.4679C7.23986 12.0867 6.31168 12.3961 5.78081 13.1326C5.24993 13.8692 5.24994 14.8476 5.25 16.8044V16.9404C5.25006 18.5543 5.25008 19.3612 5.63856 20.0214C6.02702 20.6816 6.73243 21.0735 8.14322 21.8572L13.6874 24.9375" stroke="#ED5C2E" stroke-width="3"/>
<path d="M24 33.375V37.125" stroke="#ED5C2E" stroke-width="3" stroke-linecap="round"/>
<path d="M30.5625 42.75H17.4375L18.0735 39.5698C18.2488 38.6934 19.0183 38.0625 19.9121 38.0625H28.0879C28.9817 38.0625 29.7512 38.6934 29.9265 39.5698L30.5625 42.75Z" stroke="#ED5C2E" stroke-width="3" stroke-linecap="round" stroke-linejoin="round"/>
<path d="M35.25 42.75H12.75" stroke="#ED5C2E" stroke-width="3" stroke-linecap="round"/>
</svg>
