<svg width="48" height="48" viewBox="0 0 48 48" fill="none" xmlns="http://www.w3.org/2000/svg">
<path d="M28.9163 35.0568L8.89126 29.595" stroke="#ED5C2E" stroke-width="3" stroke-linecap="round" stroke-linejoin="round"/>
<path d="M35.955 6.41648C36.7014 5.67007 37.7138 5.25073 38.7694 5.25073C39.825 5.25073 40.8373 5.67007 41.5837 6.41648C42.3302 7.1629 42.7495 8.17526 42.7495 9.23086C42.7495 10.2865 42.3302 11.2988 41.5837 12.0452L34.05 19.5809C33.8742 19.7567 33.7755 19.9951 33.7755 20.2437C33.7755 20.4923 33.8742 20.7307 34.05 20.9065L35.82 22.6765C36.6673 23.5239 37.1433 24.6732 37.1433 25.8715C37.1433 27.0698 36.6673 28.2191 35.82 29.0665L34.05 30.8365C33.8742 31.0122 33.6358 31.111 33.3872 31.111C33.1386 31.111 32.9002 31.0122 32.7244 30.8365L17.1637 15.2777C16.988 15.1019 16.8893 14.8635 16.8893 14.6149C16.8893 14.3663 16.988 14.1279 17.1637 13.9521L18.9337 12.1821C19.7812 11.3348 20.9304 10.8588 22.1287 10.8588C23.3271 10.8588 24.4763 11.3348 25.3237 12.1821L27.0937 13.9521C27.2696 14.1279 27.508 14.2266 27.7566 14.2266C28.0052 14.2266 28.2436 14.1279 28.4194 13.9521L35.955 6.41648Z" stroke="#ED5C2E" stroke-width="3" stroke-linecap="round" stroke-linejoin="round"/>
<path d="M18.375 16.5C14.9925 21.5813 10.9312 22.9875 6.03186 23.9025C5.86933 23.9322 5.71734 24.0037 5.59088 24.11C5.46441 24.2163 5.36783 24.3538 5.31067 24.5088C5.25351 24.6638 5.23774 24.831 5.26491 24.994C5.29208 25.157 5.36126 25.31 5.46561 25.4381L19.1906 42.0938C19.4694 42.3898 19.8369 42.5873 20.2376 42.6562C20.6384 42.7252 21.0508 42.6621 21.4125 42.4762C25.3781 39.7594 31.5 32.985 31.5 29.625" stroke="#ED5C2E" stroke-width="3" stroke-linecap="round" stroke-linejoin="round"/>
</svg>
