<svg width="32" height="32" viewBox="0 0 32 32" fill="none" xmlns="http://www.w3.org/2000/svg">
<path d="M16 29.3334C14.1778 29.3334 12.4555 28.9834 10.8333 28.2834C9.21109 27.5834 7.79443 26.6279 6.58329 25.4167C5.37218 24.2056 4.41663 22.7889 3.71663 21.1667C3.01663 19.5445 2.66663 17.8223 2.66663 16.0001C2.66663 14.1334 3.02218 12.3889 3.73329 10.7667C4.44441 9.14455 5.41663 7.73341 6.64996 6.53341C7.88329 5.33341 9.32776 4.38897 10.9833 3.70008C12.6388 3.01119 14.4111 2.66675 16.3 2.66675C18.0555 2.66675 19.7222 2.96119 21.3 3.55008C22.8778 4.13897 24.2611 4.95563 25.45 6.00008C26.6388 7.04455 27.5833 8.28341 28.2833 9.71675C28.9833 11.1501 29.3333 12.7223 29.3333 14.4334C29.3333 16.8334 28.6333 18.7279 27.2333 20.1167C25.8333 21.5056 23.9778 22.2001 21.6666 22.2001H19.1666C18.7666 22.2001 18.4222 22.3556 18.1333 22.6667C17.8444 22.9779 17.7 23.3223 17.7 23.7001C17.7 24.1445 17.8611 24.5667 18.1833 24.9667C18.5055 25.3667 18.6666 25.8445 18.6666 26.4001C18.6666 26.9779 18.3944 27.6112 17.85 28.3001C17.3055 28.9889 16.6888 29.3334 16 29.3334ZM8.23329 16.8667C8.67776 16.8667 9.06663 16.7001 9.39996 16.3667C9.73329 16.0334 9.89996 15.6445 9.89996 15.2001C9.89996 14.7556 9.73329 14.3667 9.39996 14.0334C9.06663 13.7001 8.67776 13.5334 8.23329 13.5334C7.78883 13.5334 7.39996 13.7001 7.06663 14.0334C6.73329 14.3667 6.56663 14.7556 6.56663 15.2001C6.56663 15.6445 6.73329 16.0334 7.06663 16.3667C7.39996 16.7001 7.78883 16.8667 8.23329 16.8667ZM12.4333 11.2001C12.8778 11.2001 13.2666 11.0334 13.6 10.7001C13.9333 10.3667 14.1 9.97788 14.1 9.53341C14.1 9.08895 13.9333 8.70008 13.6 8.36675C13.2666 8.03341 12.8778 7.86675 12.4333 7.86675C11.9888 7.86675 11.6 8.03341 11.2666 8.36675C10.9333 8.70008 10.7666 9.08895 10.7666 9.53341C10.7666 9.97788 10.9333 10.3667 11.2666 10.7001C11.6 11.0334 11.9888 11.2001 12.4333 11.2001ZM19.5666 11.2001C20.0111 11.2001 20.4 11.0334 20.7333 10.7001C21.0666 10.3667 21.2333 9.97788 21.2333 9.53341C21.2333 9.08895 21.0666 8.70008 20.7333 8.36675C20.4 8.03341 20.0111 7.86675 19.5666 7.86675C19.1222 7.86675 18.7333 8.03341 18.4 8.36675C18.0666 8.70008 17.9 9.08895 17.9 9.53341C17.9 9.97788 18.0666 10.3667 18.4 10.7001C18.7333 11.0334 19.1222 11.2001 19.5666 11.2001ZM23.9333 16.8667C24.3778 16.8667 24.7666 16.7001 25.1 16.3667C25.4333 16.0334 25.6 15.6445 25.6 15.2001C25.6 14.7556 25.4333 14.3667 25.1 14.0334C24.7666 13.7001 24.3778 13.5334 23.9333 13.5334C23.4888 13.5334 23.1 13.7001 22.7666 14.0334C22.4333 14.3667 22.2666 14.7556 22.2666 15.2001C22.2666 15.6445 22.4333 16.0334 22.7666 16.3667C23.1 16.7001 23.4888 16.8667 23.9333 16.8667Z" fill="#ED5C2E"/>
</svg>
