<svg width="32" height="32" viewBox="0 0 32 32" fill="none" xmlns="http://www.w3.org/2000/svg">
<path d="M3.26681 14.1L8.86681 8.49999C9.17795 8.18885 9.54461 7.96665 9.96681 7.83332C10.389 7.69999 10.8223 7.67772 11.2668 7.76665L13.8335 8.23332C12.6113 9.61105 11.6223 10.9167 10.8668 12.15C10.1113 13.3833 9.41128 14.8222 8.76681 16.4667L3.26681 14.1ZM10.0001 17.0667C10.6001 15.4444 11.3557 13.9167 12.2668 12.4833C13.1779 11.05 14.2113 9.75552 15.3668 8.59999C17.3223 6.64441 19.5557 5.1833 22.0668 4.21663C24.5779 3.24997 26.9223 2.95553 29.1001 3.3333C29.4779 5.51108 29.189 7.85552 28.2335 10.3667C27.2779 12.8777 25.8223 15.1111 23.8668 17.0667C22.7113 18.2222 21.4113 19.2555 19.9668 20.1667C18.5223 21.0777 16.989 21.8333 15.3668 22.4333L10.0001 17.0667ZM19.5335 12.9C19.9779 13.3444 20.5279 13.5667 21.1835 13.5667C21.839 13.5667 22.389 13.3444 22.8335 12.9C23.2779 12.4555 23.5001 11.9055 23.5001 11.25C23.5001 10.5944 23.2779 10.0444 22.8335 9.59999C22.389 9.15552 21.839 8.93332 21.1835 8.93332C20.5279 8.93332 19.9779 9.15552 19.5335 9.59999C19.089 10.0444 18.8668 10.5944 18.8668 11.25C18.8668 11.9055 19.089 12.4555 19.5335 12.9ZM18.3668 29.1667L15.9668 23.6667C17.6113 23.0222 19.0501 22.3222 20.2835 21.5667C21.5168 20.8111 22.8223 19.8222 24.2001 18.6L24.6668 21.1667C24.7557 21.6111 24.7335 22.05 24.6001 22.4833C24.4668 22.9167 24.2446 23.2889 23.9335 23.6L18.3668 29.1667ZM5.40015 21.4C6.17792 20.6222 7.12235 20.2277 8.23348 20.2167C9.34461 20.2055 10.289 20.5889 11.0668 21.3667C11.8446 22.1444 12.2335 23.0889 12.2335 24.2C12.2335 25.3111 11.8446 26.2555 11.0668 27.0333C10.489 27.6111 9.58901 28.0889 8.36681 28.4667C7.14461 28.8444 5.32237 29.2 2.90015 29.5333C3.23348 27.1111 3.58903 25.2944 3.96681 24.0833C4.34459 22.8722 4.82237 21.9777 5.40015 21.4Z" fill="#ED5C2E"/>
</svg>
